<svg width="25" height="27" viewBox="0 0 25 27" fill="none" xmlns="http://www.w3.org/2000/svg">
<mask id="path-1-inside-1_2403_583" fill="white">
<path fill-rule="evenodd" clip-rule="evenodd" d="M17.9215 24.0581C18.3298 23.8622 18.8226 23.9298 19.1385 24.2542L20.9644 26.1292C21.2319 26.4039 21.6734 26.4039 21.941 26.1292C22.1987 25.8645 22.1987 25.4427 21.941 25.1781L20.5843 23.7849C20.1584 23.3475 20.2228 22.6356 20.682 22.2333C23.3238 19.9195 25 16.4688 25 12.6145C25 5.6477 19.5235 0 12.7678 0C6.01218 0 0.535645 5.6477 0.535645 12.6145C0.535645 16.4288 2.17729 19.8477 4.77166 22.1608C5.22438 22.5644 5.28489 23.2708 4.86173 23.7054L3.42757 25.1781C3.16985 25.4427 3.16984 25.8645 3.42756 26.1291C3.69513 26.4039 4.13664 26.4039 4.40421 26.1292L6.28384 24.199C6.60245 23.8718 7.10039 23.8061 7.51021 24.0076C9.10297 24.7907 10.8858 25.229 12.7678 25.229C14.609 25.229 16.3553 24.8095 17.9215 24.0581ZM12.7678 23.8274C18.7728 23.8274 23.6409 18.8072 23.6409 12.6145C23.6409 6.42179 18.7728 1.40161 12.7678 1.40161C6.7628 1.40161 1.89478 6.42179 1.89478 12.6145C1.89478 18.8072 6.7628 23.8274 12.7678 23.8274ZM12.0083 12.298V8.5001V4.94092C12.0083 4.50942 12.3581 4.15963 12.7895 4.15963C13.221 4.15963 13.5708 4.50942 13.5708 4.94092V8.5001V12.298V12.8406V13.1226C13.5708 13.5661 13.2113 13.9257 12.7677 13.9257C12.3483 13.9257 12.0083 13.5857 12.0083 13.1663V12.8406V12.298Z"/>
</mask>
<path fill-rule="evenodd" clip-rule="evenodd" d="M17.9215 24.0581C18.3298 23.8622 18.8226 23.9298 19.1385 24.2542L20.9644 26.1292C21.2319 26.4039 21.6734 26.4039 21.941 26.1292C22.1987 25.8645 22.1987 25.4427 21.941 25.1781L20.5843 23.7849C20.1584 23.3475 20.2228 22.6356 20.682 22.2333C23.3238 19.9195 25 16.4688 25 12.6145C25 5.6477 19.5235 0 12.7678 0C6.01218 0 0.535645 5.6477 0.535645 12.6145C0.535645 16.4288 2.17729 19.8477 4.77166 22.1608C5.22438 22.5644 5.28489 23.2708 4.86173 23.7054L3.42757 25.1781C3.16985 25.4427 3.16984 25.8645 3.42756 26.1291C3.69513 26.4039 4.13664 26.4039 4.40421 26.1292L6.28384 24.199C6.60245 23.8718 7.10039 23.8061 7.51021 24.0076C9.10297 24.7907 10.8858 25.229 12.7678 25.229C14.609 25.229 16.3553 24.8095 17.9215 24.0581ZM12.7678 23.8274C18.7728 23.8274 23.6409 18.8072 23.6409 12.6145C23.6409 6.42179 18.7728 1.40161 12.7678 1.40161C6.7628 1.40161 1.89478 6.42179 1.89478 12.6145C1.89478 18.8072 6.7628 23.8274 12.7678 23.8274ZM12.0083 12.298V8.5001V4.94092C12.0083 4.50942 12.3581 4.15963 12.7895 4.15963C13.221 4.15963 13.5708 4.50942 13.5708 4.94092V8.5001V12.298V12.8406V13.1226C13.5708 13.5661 13.2113 13.9257 12.7677 13.9257C12.3483 13.9257 12.0083 13.5857 12.0083 13.1663V12.8406V12.298Z" fill="white"/>
<path d="M6.28384 24.199L9.14954 26.9896L6.28384 24.199ZM7.51021 24.0076L9.27505 20.418L7.51021 24.0076ZM4.40421 26.1292L1.53851 23.3385L4.40421 26.1292ZM3.42757 25.1781L0.561883 22.3874L3.42757 25.1781ZM20.5843 23.7849L17.7186 26.5756L20.5843 23.7849ZM20.682 22.2333L18.0465 19.2243L20.682 22.2333ZM4.77166 22.1608L2.10971 25.1464L4.77166 22.1608ZM4.86173 23.7054L1.99605 20.9147L4.86173 23.7054ZM21.941 25.1781L24.8067 22.3874L21.941 25.1781ZM20.9644 26.1292L18.0987 28.9198L20.9644 26.1292ZM19.1385 24.2542L22.0042 21.4636L19.1385 24.2542ZM17.9215 24.0581L16.1913 20.4516L17.9215 24.0581ZM16.2728 27.0449L18.0987 28.9198L23.8301 23.3385L22.0042 21.4636L16.2728 27.0449ZM24.8067 22.3874L23.45 20.9942L17.7186 26.5756L19.0753 27.9688L24.8067 22.3874ZM23.3175 25.2423C26.8075 22.1855 29 17.6466 29 12.6145H21C21 15.2911 19.8401 17.6534 18.0465 19.2243L23.3175 25.2423ZM29 12.6145C29 3.5555 21.8478 -4 12.7678 -4V4C17.1992 4 21 7.73991 21 12.6145H29ZM12.7678 -4C3.68789 -4 -3.46436 3.5555 -3.46436 12.6145H4.53564C4.53564 7.73991 8.33647 4 12.7678 4V-4ZM-3.46436 12.6145C-3.46436 17.5943 -1.31704 22.0912 2.10971 25.1464L7.43361 19.1752C5.67162 17.6042 4.53564 15.2633 4.53564 12.6145H-3.46436ZM1.99605 20.9147L0.561883 22.3874L6.29325 27.9687L7.72742 26.496L1.99605 20.9147ZM7.26991 28.9198L9.14954 26.9896L3.41814 21.4083L1.53851 23.3385L7.26991 28.9198ZM5.74538 27.5972C7.87221 28.6429 10.2573 29.229 12.7678 29.229V21.229C11.5143 21.229 10.3337 20.9385 9.27505 20.418L5.74538 27.5972ZM12.7678 29.229C15.2236 29.229 17.5598 28.6681 19.6517 27.6645L16.1913 20.4516C15.1508 20.9508 13.9944 21.229 12.7678 21.229V29.229ZM12.7678 27.8274C21.0971 27.8274 27.6409 20.8994 27.6409 12.6145H19.6409C19.6409 16.715 16.4485 19.8274 12.7678 19.8274V27.8274ZM27.6409 12.6145C27.6409 4.32959 21.0971 -2.59839 12.7678 -2.59839V5.40161C16.4485 5.40161 19.6409 8.51399 19.6409 12.6145H27.6409ZM12.7678 -2.59839C4.43851 -2.59839 -2.10522 4.32959 -2.10522 12.6145H5.89478C5.89478 8.51399 9.08709 5.40161 12.7678 5.40161V-2.59839ZM-2.10522 12.6145C-2.10522 20.8994 4.43851 27.8274 12.7678 27.8274V19.8274C9.08709 19.8274 5.89478 16.715 5.89478 12.6145H-2.10522ZM9.57083 12.298V12.8406H17.5708V12.298H9.57083ZM9.57083 12.8406V13.1226H17.5708V12.8406H9.57083ZM16.0083 13.1663V12.8406H8.00826V13.1663H16.0083ZM16.0083 12.8406V12.298H8.00826V12.8406H16.0083ZM16.0083 12.298V8.5001H8.00826V12.298H16.0083ZM16.0083 8.5001V4.94092H8.00826V8.5001H16.0083ZM9.57083 4.94092V8.5001H17.5708V4.94092H9.57083ZM9.57083 8.5001V12.298H17.5708V8.5001H9.57083ZM12.7895 0.159631C10.1489 0.159631 8.00826 2.30029 8.00826 4.94092H16.0083C16.0083 6.71856 14.5672 8.15963 12.7895 8.15963V0.159631ZM9.57083 13.1226C9.57083 11.357 11.0021 9.92569 12.7677 9.92569V17.9257C15.4204 17.9257 17.5708 15.7753 17.5708 13.1226H9.57083ZM9.14954 26.9896C8.15685 28.009 6.7521 28.0922 5.74538 27.5972L9.27505 20.418C7.44868 19.52 5.04805 19.7346 3.41814 21.4083L9.14954 26.9896ZM0.561854 28.9198C2.39966 30.807 5.4321 30.807 7.26991 28.9198L1.53851 23.3385C2.84118 22.0008 4.99061 22.0008 6.29327 23.3385L0.561854 28.9198ZM0.561883 22.3874C-1.20825 24.2051 -1.20826 27.1021 0.561854 28.9198L6.29327 23.3385C7.54795 24.6269 7.54794 26.6803 6.29325 27.9687L0.561883 22.3874ZM23.45 20.9942C24.7927 22.3731 24.394 24.2994 23.3175 25.2423L18.0465 19.2243C16.0515 20.9717 15.524 24.3219 17.7186 26.5756L23.45 20.9942ZM12.7895 8.15963C11.0119 8.15963 9.57083 6.71856 9.57083 4.94092H17.5708C17.5708 2.30028 15.4302 0.159631 12.7895 0.159631V8.15963ZM2.10971 25.1464C1.0463 24.1983 0.662631 22.2839 1.99605 20.9147L7.72742 26.496C9.90715 24.2577 9.40246 20.9306 7.43361 19.1752L2.10971 25.1464ZM24.8067 28.9198C26.5768 27.1021 26.5768 24.2051 24.8067 22.3874L19.0753 27.9688C17.8206 26.6803 17.8206 24.6269 19.0753 23.3385L24.8067 28.9198ZM18.0987 28.9198C19.9365 30.807 22.9689 30.807 24.8067 28.9198L19.0753 23.3385C20.378 22.0008 22.5274 22.0008 23.8301 23.3385L18.0987 28.9198ZM12.7677 9.92569C14.5574 9.92569 16.0083 11.3765 16.0083 13.1663H8.00826C8.00826 15.7948 10.1391 17.9257 12.7677 17.9257V9.92569ZM22.0042 21.4636C20.3881 19.804 18.0117 19.5783 16.1913 20.4516L19.6517 27.6645C18.648 28.1461 17.257 28.0555 16.2728 27.0449L22.0042 21.4636Z" fill="white" mask="url(#path-1-inside-1_2403_583)"/>
</svg>
